<?xml version="1.0" encoding="UTF-8" standalone="no"?>
<!-- Created with Inkscape (http://www.inkscape.org/) -->

<svg
   xmlns:dc="http://purl.org/dc/elements/1.1/"
   xmlns:cc="http://creativecommons.org/ns#"
   xmlns:rdf="http://www.w3.org/1999/02/22-rdf-syntax-ns#"
   xmlns:svg="http://www.w3.org/2000/svg"
   xmlns="http://www.w3.org/2000/svg"
   xmlns:sodipodi="http://sodipodi.sourceforge.net/DTD/sodipodi-0.dtd"
   xmlns:inkscape="http://www.inkscape.org/namespaces/inkscape"
   width="36.905777mm"
   height="47.575218mm"
   viewBox="0 0 36.905776 47.575218"
   version="1.1"
   id="svg8"
   inkscape:version="0.92.2 2405546, 2018-03-11"
   sodipodi:docname="logo-icon-black.svg">
  <defs
     id="defs2" />
  <sodipodi:namedview
     id="base"
     pagecolor="#ffffff"
     bordercolor="#666666"
     borderopacity="1.0"
     inkscape:pageopacity="0.0"
     inkscape:pageshadow="2"
     inkscape:zoom="0.49497475"
     inkscape:cx="-4.678328"
     inkscape:cy="167.65898"
     inkscape:document-units="mm"
     inkscape:current-layer="layer1"
     showgrid="false"
     inkscape:window-width="1362"
     inkscape:window-height="729"
     inkscape:window-x="0"
     inkscape:window-y="18"
     inkscape:window-maximized="0"
     fit-margin-top="0"
     fit-margin-left="0"
     fit-margin-right="0"
     fit-margin-bottom="0" />
  <metadata
     id="metadata5">
    <rdf:RDF>
      <cc:Work
         rdf:about="">
        <dc:format>image/svg+xml</dc:format>
        <dc:type
           rdf:resource="http://purl.org/dc/dcmitype/StillImage" />
        <dc:title></dc:title>
      </cc:Work>
    </rdf:RDF>
  </metadata>
  <g
     inkscape:label="Layer 1"
     inkscape:groupmode="layer"
     id="layer1"
     transform="translate(-3.7581221,-129.67333)">
    <g
       id="g9">
      <path
         sodipodi:nodetypes="ccsccscccccscccsccssccssscssccscssccccccccccccscscccscccccssscsccccc"
         inkscape:connector-curvature="0"
         id="path3778"
         d="m 21.964717,176.98203 c -0.413665,-0.14756 -1.812214,-0.90218 -3.107885,-1.67693 -1.29567,-0.77474 -2.409546,-1.40863 -2.475279,-1.40863 -0.06573,0 -0.675074,-0.34531 -1.354091,-0.76737 -0.679018,-0.42205 -1.859254,-1.12814 -2.622748,-1.56908 -1.77727,-1.02643 -2.4693339,-1.76561 -2.7821469,-2.97153 -0.312192,-1.20353 -0.143104,-2.21412 0.5984149,-3.57654 l 0.561131,-1.03098 h 2.033885 2.033885 l 0.821294,0.94197 c 2.957467,3.39203 6.878491,5.43244 11.54225,6.00632 l 1.918558,0.23608 -0.431233,0.78174 c -0.237179,0.42996 -0.520473,0.93291 -0.629543,1.11768 -0.109071,0.18476 -0.482615,0.82675 -0.8301,1.42664 -1.391645,2.4025 -3.170117,3.24199 -5.276392,2.49063 z m 4.321701,-7.16236 c -5.388963,-0.89486 -9.602,-3.92945 -12.112846,-8.72471 -2.139177,-4.08544 -2.431632,-9.09777 -0.786201,-13.47457 1.675274,-4.45618 5.605484,-8.30692 10.023552,-9.82088 4.31546,-1.47879 8.830356,-1.18936 12.845775,0.82351 2.27233,1.13908 4.4072,2.84773 4.4072,3.52732 0,0.406 -0.814835,1.33014 -3.819329,4.33167 -2.100631,2.09856 -3.930813,3.81557 -4.067074,3.81557 -0.136259,0 -0.610519,-0.2628 -1.053913,-0.58399 -0.443393,-0.32119 -1.294284,-0.69322 -1.890872,-0.82673 -1.903616,-0.42601 -3.817719,0.45036 -4.994364,2.28667 -0.440539,0.68752 -0.519645,1.036 -0.524314,2.30971 -0.0058,1.58856 0.177472,2.06024 1.254395,3.228 0.870643,0.94407 1.945374,1.37875 3.408942,1.37875 1.288113,0 1.782922,-0.18954 3.406566,-1.30492 0.303133,-0.20824 0.84321,0.25818 4.313244,3.72496 2.181694,2.17965 3.966719,4.11105 3.966719,4.292 0,0.18095 -0.497035,0.78326 -1.104522,1.33847 -2.075559,1.89694 -5.091478,3.25835 -8.216051,3.70878 -2.240228,0.32295 -2.959082,0.31874 -5.056907,-0.0296 z M 5.9956991,162.67278 c -0.767193,-0.3823 -1.173093,-0.75264 -1.57584,-1.43774 l -0.542477,-0.92281 -0.05963,-6.62083 -0.05963,-6.62084 0.525356,-1.07379 c 0.352001,-0.71946 0.791989,-1.25041 1.333386,-1.60903 0.797885,-0.52852 0.856147,-0.53601 4.6407539,-0.5966 2.107998,-0.0337 3.832724,0.0138 3.832724,0.10564 0,0.0919 -0.315006,0.76024 -0.700012,1.48529 -0.937573,1.76567 -1.448649,3.28439 -1.787621,5.31213 -0.356669,2.1336 -0.355418,3.43474 0.0053,5.55268 0.38152,2.23983 0.72758,3.29413 1.674286,5.10081 0.434937,0.83003 0.744781,1.5836 0.688543,1.67459 -0.05624,0.091 -1.641154,0.16545 -3.522036,0.16545 -3.2842119,0 -3.4607519,-0.0204 -4.4531489,-0.51495 z m 4.2368449,-20.84216 c -0.6957779,-1.24488 -0.8916959,-2.21921 -0.6771559,-3.36758 0.271888,-1.45535 0.9399979,-2.15293 3.3451009,-3.49266 0.272677,-0.1519 2.45724,-1.40587 4.854586,-2.78661 4.213667,-2.42684 4.397178,-2.51044 5.511004,-2.51044 1.208595,0 2.352774,0.43557 2.939911,1.11918 0.607519,0.70734 2.95378,4.87146 2.844468,5.04834 -0.06064,0.0981 -0.636976,0.1784 -1.280738,0.1784 -3.861495,0 -9.375445,2.6794 -12.016847,5.83937 l -0.754962,0.90317 h -2.122462 -2.122461 z"
         style="fill:#000000;stroke-width:0.19831005" />
    </g>
  </g>
</svg>
